# xmcd
#
# Track frame offsets:
#	150
#	16181
#	29024
#	46636
#	55886
#	66789
#	79544
#	94203
#	107244
#	126566
#
# Disc length: 1845 seconds
# Revision: 1
# Processed by: cddbd v1.5.2PL0 Copyright (c) Steve Scherf et al.
# Submitted via: dBpowerAMP V12.0
#
DISCID=8007330a
DTITLE=Myra Rolen - Tonight Darlin'
DYEAR=2013
DGENRE=Country
TTITLE0=Tonight Darlin'
TTITLE1=If You Going Dancin'
TTITLE2=Through Young Eyes
TTITLE3=Piece Of Heaven
TTITLE4=For Pete's Sake
TTITLE5=After All
TTITLE6=A Bottle Of Wine and Patsy Cline
TTITLE7=I Don't Have The Heart
TTITLE8=Pictures On the Wall
TTITLE9=Two Steppin' Texas Blue
EXTD=
EXTT0=
EXTT1=
EXTT2=
EXTT3=
EXTT4=
EXTT5=
EXTT6=
EXTT7=
EXTT8=
EXTT9=
PLAYORDER=
